<mxfile host="65bd71144e">
    <diagram name="App / Cat" id="seOgi6E_YYIxVNgKrndI">
        <mxGraphModel dx="942" dy="493" grid="1" gridSize="10" guides="1" tooltips="1" connect="1" arrows="1" fold="1" page="1" pageScale="1" pageWidth="827" pageHeight="1169" math="0" shadow="0">
            <root>
                <mxCell id="U2OBzzkkWx3GwxSl6DcJ-0"/>
                <mxCell id="U2OBzzkkWx3GwxSl6DcJ-1" parent="U2OBzzkkWx3GwxSl6DcJ-0"/>
                <mxCell id="U2OBzzkkWx3GwxSl6DcJ-2" value="Cat" style="swimlane;fontStyle=1;align=center;verticalAlign=top;childLayout=stackLayout;horizontal=1;startSize=26;horizontalStack=0;resizeParent=1;resizeParentMax=0;resizeLast=0;collapsible=1;marginBottom=0;" parent="U2OBzzkkWx3GwxSl6DcJ-1" vertex="1">
                    <mxGeometry x="440" y="80" width="200" height="242" as="geometry"/>
                </mxCell>
                <mxCell id="U2OBzzkkWx3GwxSl6DcJ-3" value="- name: String" style="text;strokeColor=none;fillColor=none;align=left;verticalAlign=top;spacingLeft=4;spacingRight=4;overflow=hidden;rotatable=0;points=[[0,0.5],[1,0.5]];portConstraint=eastwest;" parent="U2OBzzkkWx3GwxSl6DcJ-2" vertex="1">
                    <mxGeometry y="26" width="200" height="26" as="geometry"/>
                </mxCell>
                <mxCell id="U2OBzzkkWx3GwxSl6DcJ-4" value="- furColor: String" style="text;strokeColor=none;fillColor=none;align=left;verticalAlign=top;spacingLeft=4;spacingRight=4;overflow=hidden;rotatable=0;points=[[0,0.5],[1,0.5]];portConstraint=eastwest;" parent="U2OBzzkkWx3GwxSl6DcJ-2" vertex="1">
                    <mxGeometry y="52" width="200" height="26" as="geometry"/>
                </mxCell>
                <mxCell id="U2OBzzkkWx3GwxSl6DcJ-5" value="- age: int" style="text;strokeColor=none;fillColor=none;align=left;verticalAlign=top;spacingLeft=4;spacingRight=4;overflow=hidden;rotatable=0;points=[[0,0.5],[1,0.5]];portConstraint=eastwest;" parent="U2OBzzkkWx3GwxSl6DcJ-2" vertex="1">
                    <mxGeometry y="78" width="200" height="26" as="geometry"/>
                </mxCell>
                <mxCell id="1" value="- counter: int" style="text;strokeColor=none;fillColor=none;align=left;verticalAlign=top;spacingLeft=4;spacingRight=4;overflow=hidden;rotatable=0;points=[[0,0.5],[1,0.5]];portConstraint=eastwest;" vertex="1" parent="U2OBzzkkWx3GwxSl6DcJ-2">
                    <mxGeometry y="104" width="200" height="26" as="geometry"/>
                </mxCell>
                <mxCell id="U2OBzzkkWx3GwxSl6DcJ-6" value="" style="line;strokeWidth=1;fillColor=none;align=left;verticalAlign=middle;spacingTop=-1;spacingLeft=3;spacingRight=3;rotatable=0;labelPosition=right;points=[];portConstraint=eastwest;strokeColor=inherit;" parent="U2OBzzkkWx3GwxSl6DcJ-2" vertex="1">
                    <mxGeometry y="130" width="200" height="8" as="geometry"/>
                </mxCell>
                <mxCell id="U2OBzzkkWx3GwxSl6DcJ-7" value="+ Cat(String, String, int)" style="text;strokeColor=none;fillColor=none;align=left;verticalAlign=top;spacingLeft=4;spacingRight=4;overflow=hidden;rotatable=0;points=[[0,0.5],[1,0.5]];portConstraint=eastwest;" parent="U2OBzzkkWx3GwxSl6DcJ-2" vertex="1">
                    <mxGeometry y="138" width="200" height="26" as="geometry"/>
                </mxCell>
                <mxCell id="U2OBzzkkWx3GwxSl6DcJ-8" value="+ getStringAttributes(String): String" style="text;strokeColor=none;fillColor=none;align=left;verticalAlign=top;spacingLeft=4;spacingRight=4;overflow=hidden;rotatable=0;points=[[0,0.5],[1,0.5]];portConstraint=eastwest;" parent="U2OBzzkkWx3GwxSl6DcJ-2" vertex="1">
                    <mxGeometry y="164" width="200" height="26" as="geometry"/>
                </mxCell>
                <mxCell id="U2OBzzkkWx3GwxSl6DcJ-12" value="+ getAge(): String" style="text;strokeColor=none;fillColor=none;align=left;verticalAlign=top;spacingLeft=4;spacingRight=4;overflow=hidden;rotatable=0;points=[[0,0.5],[1,0.5]];portConstraint=eastwest;" parent="U2OBzzkkWx3GwxSl6DcJ-2" vertex="1">
                    <mxGeometry y="190" width="200" height="26" as="geometry"/>
                </mxCell>
                <mxCell id="2" value="- checkCompliance(): String" style="text;strokeColor=none;fillColor=none;align=left;verticalAlign=top;spacingLeft=4;spacingRight=4;overflow=hidden;rotatable=0;points=[[0,0.5],[1,0.5]];portConstraint=eastwest;" vertex="1" parent="U2OBzzkkWx3GwxSl6DcJ-2">
                    <mxGeometry y="216" width="200" height="26" as="geometry"/>
                </mxCell>
                <mxCell id="__v72zaVcLgS8lT9iHOd-0" value="App" style="swimlane;fontStyle=1;align=center;verticalAlign=top;childLayout=stackLayout;horizontal=1;startSize=26;horizontalStack=0;resizeParent=1;resizeParentMax=0;resizeLast=0;collapsible=1;marginBottom=0;" parent="U2OBzzkkWx3GwxSl6DcJ-1" vertex="1">
                    <mxGeometry x="160" y="80" width="160" height="86" as="geometry"/>
                </mxCell>
                <mxCell id="__v72zaVcLgS8lT9iHOd-2" value="" style="line;strokeWidth=1;fillColor=none;align=left;verticalAlign=middle;spacingTop=-1;spacingLeft=3;spacingRight=3;rotatable=0;labelPosition=right;points=[];portConstraint=eastwest;strokeColor=inherit;" parent="__v72zaVcLgS8lT9iHOd-0" vertex="1">
                    <mxGeometry y="26" width="160" height="8" as="geometry"/>
                </mxCell>
                <mxCell id="__v72zaVcLgS8lT9iHOd-3" value="+ main(String[]): void" style="text;strokeColor=none;fillColor=none;align=left;verticalAlign=top;spacingLeft=4;spacingRight=4;overflow=hidden;rotatable=0;points=[[0,0.5],[1,0.5]];portConstraint=eastwest;fontStyle=4" parent="__v72zaVcLgS8lT9iHOd-0" vertex="1">
                    <mxGeometry y="34" width="160" height="26" as="geometry"/>
                </mxCell>
                <mxCell id="__v72zaVcLgS8lT9iHOd-4" value="- output(String): void" style="text;strokeColor=none;fillColor=none;align=left;verticalAlign=top;spacingLeft=4;spacingRight=4;overflow=hidden;rotatable=0;points=[[0,0.5],[1,0.5]];portConstraint=eastwest;fontStyle=4" parent="__v72zaVcLgS8lT9iHOd-0" vertex="1">
                    <mxGeometry y="60" width="160" height="26" as="geometry"/>
                </mxCell>
                <mxCell id="oVOyvCEGTaQx_4tFPgYd-0" value="" style="endArrow=open;endFill=1;endSize=12;html=1;exitX=1;exitY=0.5;exitDx=0;exitDy=0;entryX=0;entryY=0.89;entryDx=0;entryDy=0;entryPerimeter=0;" parent="U2OBzzkkWx3GwxSl6DcJ-1" source="__v72zaVcLgS8lT9iHOd-3" target="U2OBzzkkWx3GwxSl6DcJ-3" edge="1">
                    <mxGeometry width="160" relative="1" as="geometry">
                        <mxPoint x="280" y="230" as="sourcePoint"/>
                        <mxPoint x="380" y="220" as="targetPoint"/>
                    </mxGeometry>
                </mxCell>
                <mxCell id="3" value="Tomcat" style="swimlane;fontStyle=1;align=center;verticalAlign=top;childLayout=stackLayout;horizontal=1;startSize=26;horizontalStack=0;resizeParent=1;resizeParentMax=0;resizeLast=0;collapsible=1;marginBottom=0;" vertex="1" parent="U2OBzzkkWx3GwxSl6DcJ-1">
                    <mxGeometry x="700" y="80" width="200" height="190" as="geometry"/>
                </mxCell>
                <mxCell id="4" value="- name: String" style="text;strokeColor=none;fillColor=none;align=left;verticalAlign=top;spacingLeft=4;spacingRight=4;overflow=hidden;rotatable=0;points=[[0,0.5],[1,0.5]];portConstraint=eastwest;" vertex="1" parent="3">
                    <mxGeometry y="26" width="200" height="26" as="geometry"/>
                </mxCell>
                <mxCell id="5" value="- furColor: String" style="text;strokeColor=none;fillColor=none;align=left;verticalAlign=top;spacingLeft=4;spacingRight=4;overflow=hidden;rotatable=0;points=[[0,0.5],[1,0.5]];portConstraint=eastwest;" vertex="1" parent="3">
                    <mxGeometry y="52" width="200" height="26" as="geometry"/>
                </mxCell>
                <mxCell id="6" value="- age: int" style="text;strokeColor=none;fillColor=none;align=left;verticalAlign=top;spacingLeft=4;spacingRight=4;overflow=hidden;rotatable=0;points=[[0,0.5],[1,0.5]];portConstraint=eastwest;" vertex="1" parent="3">
                    <mxGeometry y="78" width="200" height="26" as="geometry"/>
                </mxCell>
                <mxCell id="9" value="" style="line;strokeWidth=1;fillColor=none;align=left;verticalAlign=middle;spacingTop=-1;spacingLeft=3;spacingRight=3;rotatable=0;labelPosition=right;points=[];portConstraint=eastwest;strokeColor=inherit;" vertex="1" parent="3">
                    <mxGeometry y="104" width="200" height="8" as="geometry"/>
                </mxCell>
                <mxCell id="10" value="+ Cat(String, String, int)" style="text;strokeColor=none;fillColor=none;align=left;verticalAlign=top;spacingLeft=4;spacingRight=4;overflow=hidden;rotatable=0;points=[[0,0.5],[1,0.5]];portConstraint=eastwest;" vertex="1" parent="3">
                    <mxGeometry y="112" width="200" height="26" as="geometry"/>
                </mxCell>
                <mxCell id="11" value="+ getStringAttributes(String): String" style="text;strokeColor=none;fillColor=none;align=left;verticalAlign=top;spacingLeft=4;spacingRight=4;overflow=hidden;rotatable=0;points=[[0,0.5],[1,0.5]];portConstraint=eastwest;" vertex="1" parent="3">
                    <mxGeometry y="138" width="200" height="26" as="geometry"/>
                </mxCell>
                <mxCell id="12" value="+ getAge(): String" style="text;strokeColor=none;fillColor=none;align=left;verticalAlign=top;spacingLeft=4;spacingRight=4;overflow=hidden;rotatable=0;points=[[0,0.5],[1,0.5]];portConstraint=eastwest;" vertex="1" parent="3">
                    <mxGeometry y="164" width="200" height="26" as="geometry"/>
                </mxCell>
            </root>
        </mxGraphModel>
    </diagram>
</mxfile>